# xmcd
#
# Track frame offsets: 
#        150
#        24088
#        36798
#        58043
#        83764
#        111878
#        144574
#        163875
#        189066
#        211842
#        226098
#        254828
#
# Disc length: 3818 seconds
#
# Revision: 0
# Processed by: cddbd v1.5.1PL0 Copyright (c) Steve Scherf et al.
# Submitted via: ExactAudioCopy v0.95a5
#
DISCID=980ee80c
DTITLE=Hot Tuna - 1983-08-17 Chestnut Cabaret Philadelphia, PA
DYEAR=1983
DGENRE=Blues
TTITLE0=Too Long Out/Too Long In
TTITLE1=Don't You Leave Me Here
TTITLE2=Police Dog Blues
TTITLE3=Uncle Sam Blues
TTITLE4=Trial By Fire
TTITLE5=Winin' Boy Blues
TTITLE6=True Religion
TTITLE7=Roads And Roads 
TTITLE8=Come Back Baby
TTITLE9=How Long Blues
TTITLE10=Mann's Fate
TTITLE11=Junkies On Angel Dust
EXTD=
EXTT0=
EXTT1=
EXTT2=
EXTT3=
EXTT4=
EXTT5=
EXTT6=
EXTT7=
EXTT8=
EXTT9=
EXTT10=
EXTT11=
PLAYORDER=
